# xmcd CD database file
#
# Track frame offsets:
#	150
#	27297
#	49777
#	72512
#	96880
#	125840
#	154617
#	181782
#	206315
#	230145
#	249532
#	270592
#
# Disc length: 3921 seconds
#
# Revision: 0
# Processed by: cddbd v1.5.1PL2 Copyright (c) Steve Scherf et al.
# Submitted via: NeoAudio 9.9.9
#
DISCID=a60f4f0c
DTITLE=Etta James - Great American Songbook
DYEAR=2005
DGENRE=Jazz
TTITLE0=Someone to Watch Over Me
TTITLE1=Teach Me Tonight
TTITLE2=Cry Me a River
TTITLE3=You Don't Know What Love Is
TTITLE4=Willow Weep for Me
TTITLE5=I got it Bad and That Ain't Good
TTITLE6=He's Funny That Way
TTITLE7=Tenderly
TTITLE8=In My Solitude
TTITLE9=Night and Day
TTITLE10=I'll be Seeing You
TTITLE11=These Foolish Things
EXTD=YEAR: 2005
EXTT0=
EXTT1=
EXTT2=
EXTT3=
EXTT4=
EXTT5=
EXTT6=
EXTT7=
EXTT8=
EXTT9=
EXTT10=
EXTT11=
PLAYORDER=
